<svg id="visual" viewBox="0 0 960 540" width="960" height="540" xmlns="http://www.w3.org/2000/svg" xmlns:xlink="http://www.w3.org/1999/xlink" version="1.1"><rect x="0" y="0" width="960" height="540" fill="#001220"></rect><path d="M0 239L22.8 241.7C45.7 244.3 91.3 249.7 137 244.3C182.7 239 228.3 223 274 216C319.7 209 365.3 211 411.2 218.8C457 226.7 503 240.3 548.8 252C594.7 263.7 640.3 273.3 686 264.3C731.7 255.3 777.3 227.7 823 220.5C868.7 213.3 914.3 226.7 937.2 233.3L960 240L960 541L937.2 541C914.3 541 868.7 541 823 541C777.3 541 731.7 541 686 541C640.3 541 594.7 541 548.8 541C503 541 457 541 411.2 541C365.3 541 319.7 541 274 541C228.3 541 182.7 541 137 541C91.3 541 45.7 541 22.8 541L0 541Z" fill="#fa7268"></path><path d="M0 298L22.8 296.2C45.7 294.3 91.3 290.7 137 297.8C182.7 305 228.3 323 274 330.2C319.7 337.3 365.3 333.7 411.2 322.8C457 312 503 294 548.8 294.7C594.7 295.3 640.3 314.7 686 321.5C731.7 328.3 777.3 322.7 823 328.3C868.7 334 914.3 351 937.2 359.5L960 368L960 541L937.2 541C914.3 541 868.7 541 823 541C777.3 541 731.7 541 686 541C640.3 541 594.7 541 548.8 541C503 541 457 541 411.2 541C365.3 541 319.7 541 274 541C228.3 541 182.7 541 137 541C91.3 541 45.7 541 22.8 541L0 541Z" fill="#eb5967"></path><path d="M0 416L22.8 414C45.7 412 91.3 408 137 403.7C182.7 399.3 228.3 394.7 274 387.8C319.7 381 365.3 372 411.2 368.5C457 365 503 367 548.8 374.7C594.7 382.3 640.3 395.7 686 405.5C731.7 415.3 777.3 421.7 823 419C868.7 416.3 914.3 404.7 937.2 398.8L960 393L960 541L937.2 541C914.3 541 868.7 541 823 541C777.3 541 731.7 541 686 541C640.3 541 594.7 541 548.8 541C503 541 457 541 411.2 541C365.3 541 319.7 541 274 541C228.3 541 182.7 541 137 541C91.3 541 45.7 541 22.8 541L0 541Z" fill="#da3f67"></path><path d="M0 423L22.8 426.2C45.7 429.3 91.3 435.7 137 444.8C182.7 454 228.3 466 274 465.2C319.7 464.3 365.3 450.7 411.2 449.3C457 448 503 459 548.8 460.2C594.7 461.3 640.3 452.7 686 452.7C731.7 452.7 777.3 461.3 823 459.7C868.7 458 914.3 446 937.2 440L960 434L960 541L937.2 541C914.3 541 868.7 541 823 541C777.3 541 731.7 541 686 541C640.3 541 594.7 541 548.8 541C503 541 457 541 411.2 541C365.3 541 319.7 541 274 541C228.3 541 182.7 541 137 541C91.3 541 45.7 541 22.8 541L0 541Z" fill="#c62368"></path></svg>