<svg id="visual" viewBox="0 0 960 540" width="960" height="540" xmlns="http://www.w3.org/2000/svg" xmlns:xlink="http://www.w3.org/1999/xlink" version="1.1"><rect x="0" y="0" width="960" height="540" fill="#222831"></rect><path d="M0 260L20 255.7C40 251.3 80 242.7 120 235C160 227.3 200 220.7 240 217.7C280 214.7 320 215.3 360 221.2C400 227 440 238 480 246.8C520 255.7 560 262.3 600 260.8C640 259.3 680 249.7 720 244.2C760 238.7 800 237.3 840 239.5C880 241.7 920 247.3 940 250.2L960 253L960 541L940 541C920 541 880 541 840 541C800 541 760 541 720 541C680 541 640 541 600 541C560 541 520 541 480 541C440 541 400 541 360 541C320 541 280 541 240 541C200 541 160 541 120 541C80 541 40 541 20 541L0 541Z" fill="#892cdc"></path><path d="M0 364L20 356C40 348 80 332 120 330.3C160 328.7 200 341.3 240 342C280 342.7 320 331.3 360 331.8C400 332.3 440 344.7 480 348.7C520 352.7 560 348.3 600 348.2C640 348 680 352 720 352.5C760 353 800 350 840 349.7C880 349.3 920 351.7 940 352.8L960 354L960 541L940 541C920 541 880 541 840 541C800 541 760 541 720 541C680 541 640 541 600 541C560 541 520 541 480 541C440 541 400 541 360 541C320 541 280 541 240 541C200 541 160 541 120 541C80 541 40 541 20 541L0 541Z" fill="#a44fe6"></path><path d="M0 438L20 438.8C40 439.7 80 441.3 120 444.3C160 447.3 200 451.7 240 454.7C280 457.7 320 459.3 360 454.2C400 449 440 437 480 432.3C520 427.7 560 430.3 600 431.2C640 432 680 431 720 429.5C760 428 800 426 840 431.3C880 436.7 920 449.3 940 455.7L960 462L960 541L940 541C920 541 880 541 840 541C800 541 760 541 720 541C680 541 640 541 600 541C560 541 520 541 480 541C440 541 400 541 360 541C320 541 280 541 240 541C200 541 160 541 120 541C80 541 40 541 20 541L0 541Z" fill="#bc6ff1"></path></svg>